<svg width="136" height="124" viewBox="0 0 136 124" fill="none" xmlns="http://www.w3.org/2000/svg">
<path d="M98.5315 7.3622C99.9701 7.3622 101.328 7.53484 102.594 7.86862C104.171 8.32899 105.31 9.01956 106.012 9.97484C106.703 10.9186 107.221 12.2998 107.555 14.1067C108.498 19.1709 109.442 24.2465 110.397 29.3107C111.33 34.2943 112.181 39.3699 112.964 44.5722C114.23 44.3305 115.404 44.1118 116.497 43.9162C117.591 43.7205 118.592 43.5709 119.513 43.4903C119.892 43.4558 120.272 43.4443 120.629 43.4443C122.747 43.4443 124.381 43.9967 125.509 45.1131C126.832 46.4137 127.753 48.4624 128.271 51.2707C128.893 54.6199 128.72 57.0599 127.742 58.6022C126.763 60.1445 125.221 61.2954 123.115 62.0665C122.24 62.4233 121.181 62.7571 119.938 63.0794C118.684 63.4016 117.337 63.7009 115.887 63.9771C116.842 71.1014 117.752 78.2143 118.603 85.3156C119.455 92.4169 120.169 99.4722 120.733 106.481C120.917 108.507 120.525 110.245 119.524 111.695C118.534 113.145 117.314 114.285 115.876 115.114C114.943 115.666 113.574 116.057 111.744 116.311C110.766 116.437 109.856 116.506 109.016 116.506C108.28 116.506 107.601 116.46 106.968 116.357C105.702 116.126 104.551 115.562 103.492 114.688C102.433 113.801 101.743 112.466 101.409 110.648C99.8435 102.787 98.3703 95.1101 96.9662 87.5945C95.5621 80.0788 94.1925 72.5862 92.8459 65.1165C91.4994 57.6354 90.1758 50.0622 88.8868 42.3969C87.5978 34.7201 86.2742 26.7556 84.9162 18.4803C84.3292 14.8433 85.2845 12.1847 87.7819 10.5043C89.773 9.10013 92.1669 8.16786 94.9866 7.68447C96.2181 7.46579 97.4036 7.3622 98.5315 7.3622ZM70.8405 16.7194C73.0042 16.7194 74.3968 17.9624 75.0298 20.4599C77.5273 32.8326 79.9097 45.1016 82.177 57.2671C84.4443 69.4441 86.5159 81.7707 88.3804 94.2584C88.7602 96.8135 88.5646 98.632 87.7819 99.7139C86.9993 100.796 85.6297 101.613 83.6732 102.165C80.1974 103.098 76.3188 104.076 72.072 105.1C67.8136 106.125 63.4401 107.137 58.9401 108.116C54.44 109.094 49.9745 110.026 45.555 110.901C41.124 111.776 37.0037 112.524 33.1827 113.134C32.1123 113.307 31.1225 113.387 30.2133 113.387C28.1187 113.387 26.4613 112.927 25.2414 112.006C23.492 110.694 22.2145 108.334 21.3858 104.928C19.9126 99.0233 18.5546 93.2801 17.3231 87.6981C16.0916 82.116 14.9407 76.5569 13.8588 70.9979C12.777 65.4388 11.7182 59.7877 10.6938 54.0214C9.66953 48.2667 8.66824 42.2933 7.70147 36.1013C7.12602 31.9924 8.66824 29.5064 12.3512 28.6316C13.9624 28.2403 16.2527 27.7224 19.2221 27.0664C22.1915 26.4218 25.4946 25.6852 29.1315 24.8681C32.7683 24.0509 36.6009 23.2222 40.606 22.3705C44.6112 21.5303 48.4553 20.7477 52.1037 20.0111C55.7636 19.286 59.1242 18.6299 62.2087 18.0545C65.2816 17.479 67.733 17.0762 69.563 16.823C70.0118 16.7654 70.4377 16.7194 70.8405 16.7194ZM42.5511 91.8645C46.2225 90.9897 49.6292 90.2416 52.7367 89.6086C55.8556 88.9871 59.2508 88.2735 62.9453 87.4909C64.6601 87.1686 65.3852 86.2364 65.0975 84.7056L65.0744 84.5675C64.4184 81.0341 63.7164 77.5352 62.9798 74.0709C62.2432 70.6065 61.4951 67.1077 60.747 63.5973C59.9989 60.0869 59.1818 56.4614 58.2956 52.7439C57.4094 49.0264 56.4886 45.1016 55.5334 40.9698L32.2619 45.0326C33.1827 49.4522 34.0689 53.5726 34.9205 57.3937C35.7722 61.2148 36.6124 64.9669 37.441 68.6499C38.2697 72.333 39.0868 76.0735 39.881 79.8601C40.6866 83.6352 41.5728 87.6405 42.5511 91.8645ZM98.5315 0.456543C97.0123 0.456543 95.4355 0.594655 93.8127 0.870881C90.0147 1.51541 86.654 2.8505 83.8458 4.81862C81.9583 6.10767 79.3227 8.57069 78.2869 12.6911C76.3304 10.8496 73.7523 9.81371 70.8405 9.81371C70.0809 9.81371 69.2983 9.88277 68.4927 10.0209C66.5476 10.2856 64.0156 10.7114 60.9427 11.2869C57.8927 11.8509 54.5666 12.4954 50.7571 13.255C47.0857 13.9916 43.1956 14.7858 39.1904 15.626C35.1047 16.4892 31.2031 17.3294 27.6123 18.1465C23.9869 18.9637 20.6953 19.6888 17.7489 20.3333C14.7681 20.9894 12.3972 21.5188 10.7054 21.9331C3.5697 23.6365 -0.216805 29.4373 0.853543 37.0796L0.865055 37.1256L0.876562 37.1716C1.84333 43.3522 2.85613 49.4292 3.89195 55.2415C4.91626 61.0192 5.99812 66.7624 7.07998 72.3214C8.17334 77.9496 9.35878 83.6237 10.5788 89.1828C11.8102 94.7994 13.1913 100.646 14.676 106.574C15.8845 111.546 18.0367 115.229 21.0751 117.519C23.5035 119.349 26.5764 120.281 30.1903 120.281C31.4563 120.281 32.8259 120.166 34.253 119.936C38.1661 119.303 42.413 118.532 46.867 117.657C51.275 116.794 55.8211 115.839 60.3902 114.849C64.9363 113.859 69.4019 112.835 73.6833 111.799C77.9301 110.774 81.8893 109.773 85.4456 108.818L85.4916 108.806L85.5377 108.795C88.8293 107.863 91.3728 106.297 93.0876 104.122C93.594 106.723 94.112 109.336 94.6299 111.948C95.2744 115.355 96.7706 118.06 99.0724 119.982C101.04 121.628 103.273 122.687 105.713 123.136L105.794 123.147L105.886 123.159C106.876 123.32 107.923 123.4 109.016 123.4C110.156 123.4 111.387 123.308 112.665 123.136C115.438 122.756 117.637 122.077 119.374 121.052C121.665 119.729 123.644 117.887 125.221 115.585C127.109 112.835 127.937 109.474 127.615 105.883C127.051 98.8392 126.326 91.6343 125.463 84.4754C124.853 79.4113 124.208 74.3011 123.552 69.2139C124.289 68.9837 124.968 68.742 125.601 68.5003C129.111 67.1998 131.793 65.105 133.588 62.2852C135.556 59.1892 136.04 55.1724 135.073 49.9931C134.29 45.7922 132.702 42.489 130.366 40.1871C128.674 38.5182 125.612 36.5271 120.64 36.5271C120.1 36.5271 119.536 36.5501 118.96 36.5962C118.88 36.6077 118.799 36.6077 118.718 36.6192C118.235 33.7188 117.729 30.8414 117.211 28.0331L115.841 20.7247L114.368 12.8292C113.839 9.97484 112.929 7.70748 111.617 5.88899C109.995 3.66767 107.612 2.10239 104.528 1.21617L104.459 1.19315L104.39 1.18164C102.537 0.70975 100.569 0.456543 98.5315 0.456543ZM40.491 50.6031L50.2737 48.8997C50.7111 50.7643 51.1369 52.5828 51.5627 54.3437C52.4259 57.9807 53.2316 61.5831 53.9797 65.0475C54.7277 68.5579 55.4758 72.0567 56.2124 75.5211C56.6498 77.5467 57.0641 79.5724 57.4554 81.5981C55.3032 82.0469 53.2661 82.4613 51.3556 82.8526C50.1931 83.0943 48.9847 83.336 47.7417 83.6122C47.3504 81.8513 46.9821 80.1248 46.6253 78.4445C45.8082 74.5773 44.9795 70.7792 44.1624 67.1537C43.3337 63.4707 42.4935 59.7186 41.6419 55.8975C41.2736 54.1711 40.8823 52.3986 40.491 50.6031Z" fill="#1E1105"/>
</svg>
