<svg width="120" height="127" viewBox="0 0 120 127" fill="none" xmlns="http://www.w3.org/2000/svg">
<path d="M98.8121 7.64736C102.541 7.64736 104.739 10.3866 105.407 15.8536C105.844 19.2374 105.51 21.6889 104.371 23.2081C103.243 24.7274 101.62 25.6596 99.5256 26.0049C96.9706 26.4768 92.7583 27.1213 86.8656 27.9385C80.9729 28.7557 74.3667 29.6304 67.0469 30.5511C67.2081 32.6689 67.3232 34.8211 67.4037 37.0309C67.5648 39.1487 67.6339 41.3585 67.6339 43.6604C70.7874 45.0876 74.1365 46.5377 77.6583 48.0225C81.1916 49.5072 84.7134 50.9689 88.2467 52.4075C91.7685 53.8462 95.1522 55.2504 98.3978 56.62C101.643 57.9896 104.555 59.2672 107.133 60.4526C107.996 60.8555 108.779 61.4885 109.493 62.3517C110.206 63.2264 110.724 64.2508 111.046 65.4247C111.369 66.5987 111.461 67.8877 111.334 69.2804C111.207 70.673 110.747 72.1462 109.941 73.677C108.583 76.4623 106.661 78.2692 104.187 79.0979C102.944 79.5123 101.724 79.7194 100.515 79.7194C99.307 79.7194 98.0986 79.5123 96.9131 79.0864C90.9399 77.0492 84.5984 74.6208 77.8655 71.8125C71.1442 69.0042 64.5379 66.2304 58.0468 63.4796C55.7104 65.5974 53.2015 67.8187 50.5198 70.1436C47.8382 72.4685 45.1221 74.7589 42.3829 76.9917C39.6437 79.236 36.9391 81.3538 34.2805 83.3564C31.6104 85.3591 29.1819 87.1315 26.9952 88.6853C24.6358 90.3196 22.3455 91.1368 20.1012 91.1368C19.9171 91.1368 19.7444 91.1368 19.5603 91.1253C17.1434 90.9872 14.8876 89.8362 12.7929 87.6955C10.7903 85.7274 9.84661 83.483 9.92717 80.9855C10.0192 78.4879 10.7903 76.5313 12.252 75.1272C16.729 70.8226 21.701 66.357 27.1678 61.7302C32.6347 57.1149 37.6296 52.373 42.1527 47.5045C41.7844 45.1336 41.4737 42.7972 41.209 40.5068C40.9442 38.2164 40.6795 35.9721 40.4263 33.7853C35.3853 34.3492 30.6436 34.8557 26.2011 35.2815C21.7586 35.7189 17.972 36.0411 14.8531 36.2828C14.6114 36.3059 14.3697 36.3059 14.1395 36.3059C12.3556 36.3059 10.8824 35.7534 9.74302 34.66C8.44249 33.417 7.62535 31.0575 7.26857 27.5817C6.9348 24.4742 7.21101 21.9766 8.0857 20.1121C8.9604 18.2476 10.5832 17.1311 12.9541 16.7628C17.8915 16.1068 24.0259 15.3932 31.3457 14.5991C38.677 13.8164 46.342 12.9992 54.3639 12.1591C62.3742 11.3189 70.235 10.5132 77.9346 9.74208C85.6342 8.97094 92.321 8.28038 97.995 7.65887C98.2827 7.65887 98.5474 7.64736 98.8121 7.64736ZM106.408 91.7008C108.146 91.7008 109.596 92.2762 110.747 93.4272C112.036 94.7162 112.784 96.5462 112.968 98.9402C113.222 102.335 112.623 104.718 111.161 106.076C109.688 107.434 107.962 108.286 105.948 108.62C92.6432 111.014 79.4653 113.166 66.414 115.088C53.3511 116.998 39.7588 118.495 25.6141 119.577C25.2803 119.6 24.9581 119.611 24.6358 119.611C22.5066 119.611 20.7573 119.036 19.3877 117.896C17.8109 116.584 16.9017 114.317 16.66 111.106C16.4298 108.079 16.9477 105.731 18.2022 104.062C19.4567 102.301 21.2637 101.242 23.6345 100.874C31.0464 99.9415 38.2051 99.0553 45.1106 98.2036C52.016 97.3519 58.8179 96.5577 65.4932 95.8211C72.18 95.0845 78.8438 94.3709 85.4846 93.6804C92.1253 92.9898 98.8812 92.3338 105.764 91.7238C105.994 91.7123 106.201 91.7008 106.408 91.7008ZM98.8121 0.741699C98.3287 0.741699 97.8338 0.76472 97.339 0.810757H97.3044H97.2699C91.665 1.42076 85.1278 2.09981 77.267 2.88245C69.625 3.65359 61.6837 4.45925 53.6618 5.29944C45.64 6.13963 37.9634 6.9568 30.6321 7.73944C23.2777 8.53359 17.0283 9.25868 12.0679 9.91472L11.9988 9.92623L11.9297 9.93774C7.28006 10.6513 3.71223 13.2294 1.85927 17.1887C0.432135 20.2387 -0.0397278 23.8757 0.432146 28.3183C0.961566 33.5091 2.45775 37.2266 5.00127 39.6666C7.42969 41.9915 10.6062 43.2345 14.174 43.2345C14.5769 43.2345 14.9912 43.223 15.4055 43.1885C18.6166 42.9468 22.4836 42.6015 26.9031 42.1757C29.297 41.9455 31.806 41.6923 34.3956 41.416C34.5452 42.6591 34.6948 43.9251 34.8789 45.2026C31.15 49.0353 27.0873 52.8219 22.7598 56.4819C17.1894 61.1892 12.0679 65.793 7.51025 70.1781C5.59973 72.0196 3.26338 75.3574 3.07923 80.7668C2.92961 85.1864 4.60996 89.2723 7.9476 92.587C10.1689 94.8428 12.5973 96.4196 15.2099 97.2828C14.2661 98.0655 13.4145 98.9632 12.6779 99.9875C10.4221 103.015 9.46681 106.939 9.82359 111.635C10.2149 116.768 11.9643 120.658 15.0257 123.214C17.6268 125.377 20.9644 126.517 24.6934 126.517C25.1768 126.517 25.6832 126.494 26.1896 126.459C40.4033 125.377 54.2948 123.847 67.4613 121.925C80.5356 120.002 93.9092 117.816 107.191 115.422C110.517 114.858 113.44 113.419 115.892 111.152C118.976 108.297 120.323 104.016 119.897 98.4223C119.586 94.3479 118.159 91.0217 115.661 88.5357C113.613 86.51 111.081 85.2785 108.25 84.9217C111.599 83.3104 114.303 80.5366 116.145 76.8076C117.342 74.4942 118.055 72.1808 118.263 69.9134C118.458 67.7036 118.286 65.5858 117.756 63.6292C117.181 61.5115 116.214 59.624 114.89 58.0011C113.498 56.3092 111.886 55.0317 110.08 54.203C107.467 52.9945 104.452 51.6825 101.137 50.2783C97.8799 48.9087 94.4386 47.47 90.9053 46.0313C87.395 44.5926 83.8618 43.1309 80.386 41.6692C78.3719 40.8176 76.4038 39.9774 74.4933 39.1372C74.4588 38.297 74.4128 37.4683 74.3438 36.6511C74.3438 36.6281 74.3438 36.6051 74.3438 36.5821C79.1891 35.9491 83.7122 35.3506 87.8555 34.7751C93.7366 33.9579 98.087 33.3019 100.757 32.807C104.59 32.1625 107.766 30.2749 109.941 27.34C112.209 24.3015 112.98 20.2617 112.289 14.9674C110.632 1.76604 101.551 0.741699 98.8121 0.741699ZM33.2792 92.7136C34.902 91.5396 36.6283 90.2621 38.4468 88.904C41.1974 86.8323 43.9942 84.634 46.7794 82.3666C49.5415 80.1108 52.3268 77.7628 55.0659 75.3919C56.5621 74.0913 58.0238 72.8138 59.4164 71.5708C64.607 73.7576 69.8782 75.9674 75.2184 78.2002C82.0433 81.0545 88.5805 83.5521 94.6688 85.6353C94.8185 85.6928 94.9796 85.7389 95.1292 85.7849C91.6535 86.1187 88.2007 86.464 84.794 86.8208C78.1072 87.5113 71.3744 88.2364 64.7566 88.973C58.0929 89.7096 51.2104 90.5153 44.2819 91.367C40.6795 91.7928 37.0081 92.2532 33.2792 92.7136Z" fill="#1E1105"/>
</svg>
