<svg width="114" height="120" viewBox="0 0 114 120" fill="none" xmlns="http://www.w3.org/2000/svg">
<path d="M72.0854 7.74892C77.3796 7.74892 82.4206 7.77194 87.2084 7.81798C91.9962 7.86401 96.2776 7.88703 100.053 7.88703C104.288 7.88703 106.406 10.8795 106.406 16.8644C106.498 20.2712 105.899 22.6421 104.61 23.9772C103.321 25.3123 101.618 26.0719 99.5001 26.2561C98.4873 26.3482 97.1753 26.4402 95.564 26.5323C93.9527 26.6244 92.0883 26.7165 89.9706 26.8085C89.8785 31.3202 89.7404 36.4074 89.5563 42.07C89.3721 47.7327 89.0959 53.4184 88.7276 59.127C90.0166 59.127 91.2596 59.104 92.4566 59.058C93.6535 59.0119 94.8504 58.9429 96.0474 58.8508C96.197 58.8393 96.3351 58.8393 96.4732 58.8393C98.4643 58.8393 99.9835 59.4378 101.019 60.6463C102.124 61.9353 102.769 64.0531 102.953 66.9995C103.137 70.4063 102.631 72.7772 101.434 74.1123C100.237 75.4474 98.5794 76.207 96.4617 76.3912C94.0678 76.5753 90.454 76.8285 85.6201 77.1508C80.7863 77.4731 75.331 77.7723 69.2542 78.0485V91.1693C74.2261 90.9851 79.2441 90.847 84.3081 90.755C89.3721 90.6629 94.5282 90.5708 99.7764 90.4787C101.802 90.4787 103.39 91.1693 104.541 92.5504C105.692 93.9316 106.314 95.8191 106.406 98.2131C106.406 101.62 105.623 103.945 104.058 105.188C102.492 106.431 100.697 107.144 98.6715 107.329C85.2288 108.71 71.9243 109.792 58.7578 110.574C45.5914 111.357 31.9186 111.886 17.7393 112.163C15.1613 112.163 13.1357 111.449 11.6625 110.022C10.1893 108.595 9.45276 106.27 9.45276 103.047C9.36069 100.009 10.0282 97.6606 11.4554 96.0033C12.8825 94.3459 14.793 93.4712 17.1869 93.3791C22.2509 93.195 27.1538 92.9648 31.8955 92.6885C36.6373 92.4123 41.356 92.1821 46.0518 91.998V79.1534C40.3432 79.3376 34.957 79.5218 29.893 79.7059C24.829 79.8901 20.4555 79.9821 16.7726 79.9821C16.6229 79.9936 16.4733 79.9936 16.3237 79.9936C14.4132 79.9936 12.9055 79.4412 11.8006 78.3248C10.6037 77.1278 9.91313 74.7799 9.72898 71.281C9.63691 68.1504 10.0743 65.7334 11.041 64.0301C12.0078 62.3267 13.6881 61.3829 16.082 61.1987C17.5552 61.1067 19.1204 61.0376 20.7777 60.9916C22.435 60.9455 24.1844 60.8765 26.0259 60.7844C25.6576 55.6282 25.3814 50.1267 25.1972 44.2799C25.0131 38.4331 24.921 32.9776 24.921 27.9135C22.8033 27.9135 20.7777 27.8904 18.8442 27.8444C16.9107 27.7984 15.1613 27.7293 13.596 27.6372C11.4784 27.5451 9.82105 26.8085 8.6241 25.4274C7.42715 24.0463 6.87471 21.6063 6.96678 18.1074C6.96678 14.9768 7.49621 12.5368 8.55505 10.7874C9.61389 9.03798 11.3403 8.11722 13.7342 8.02515C17.0488 7.93307 20.9619 7.86401 25.4735 7.81798C29.985 7.77194 34.7959 7.74892 39.9059 7.74892C45.016 7.74892 50.3332 7.74892 55.8575 7.74892C61.3819 7.74892 66.7912 7.74892 72.0854 7.74892ZM67.5968 27.361C64.2822 27.4531 60.9216 27.5221 57.5149 27.5682C54.1082 27.6142 50.6554 27.6833 47.1567 27.7753C47.3408 32.5633 47.4789 37.8576 47.571 43.6584C47.6631 49.4591 47.7551 54.9376 47.8472 60.0938C51.0697 60.0018 54.2693 59.9327 57.4458 59.8867C60.6223 59.8406 63.8219 59.7716 67.0444 59.6795C67.0444 54.4312 67.0904 48.9297 67.1825 43.175C67.2746 37.4202 67.4127 32.1489 67.5968 27.361ZM72.0854 0.843262H55.8575H39.9059C34.8534 0.843262 29.9735 0.866278 25.4044 0.912316C20.8813 0.958353 16.8992 1.02741 13.55 1.11949H13.5155H13.481C8.77372 1.30364 4.92968 3.46741 2.66238 7.20798C0.936016 10.0623 0.0843411 13.5957 0.072832 18.0153C-0.0537684 23.3097 1.0396 27.2114 3.42199 29.9506C5.85042 32.7589 9.25711 34.3472 13.2508 34.5314C14.7009 34.6119 16.3237 34.681 18.0731 34.727C18.1191 37.8806 18.1997 41.1378 18.3033 44.4985C18.4069 47.8133 18.545 51.0359 18.7061 54.155C17.6473 54.201 16.6345 54.247 15.6677 54.3046H15.6101H15.5526C10.8799 54.6614 7.13942 56.9057 5.04476 60.6117C3.42198 63.4661 2.70841 67.0225 2.83501 71.4767V71.5572V71.6378C3.12274 77.0242 4.41177 80.7072 6.92076 83.2048C8.34789 84.6319 10.7418 86.3123 14.3557 86.7727C11.1331 87.4057 8.34789 89.017 6.2187 91.4916C3.65216 94.461 2.42069 98.3857 2.54729 103.151C2.5703 108.249 4.02046 112.232 6.8517 114.982C8.77373 116.847 12.2265 119.068 17.7393 119.068H17.8084H17.8774C32.0337 118.792 45.9367 118.251 59.1722 117.468C72.3731 116.686 85.8963 115.581 99.3505 114.2C102.711 113.889 105.738 112.669 108.351 110.597C111.642 107.985 113.311 103.818 113.311 98.2131V98.075V97.9368C113.161 94.0006 111.999 90.6974 109.847 88.1193C107.361 85.1384 103.874 83.5616 99.7764 83.5616H99.7188H99.6613L90.6151 83.7227C93.3082 83.5385 95.4259 83.3889 97.0027 83.2623H97.0372H97.0717C100.927 82.9285 104.219 81.3518 106.59 78.7161C109.087 75.9308 110.158 71.9831 109.87 66.6197V66.5851V66.5506C109.582 62.0274 108.42 58.6206 106.291 56.1346C104.633 54.2125 101.606 51.9106 96.5078 51.9106C96.3696 51.9106 96.2315 51.9106 96.0934 51.9106C96.2546 48.688 96.3927 45.4653 96.4963 42.2657C96.5998 39.1467 96.6804 36.1657 96.761 33.3574C98.0845 33.2768 99.2354 33.1963 100.168 33.1042C103.897 32.7819 107.177 31.2742 109.617 28.7421C112.252 26.0144 113.472 22.0782 113.346 16.7378C113.277 5.13628 106.44 0.981374 100.053 0.981374C96.2085 0.981374 91.9041 0.958353 87.2775 0.912316C82.4206 0.866278 77.3105 0.843262 72.0854 0.843262ZM54.2808 34.5314C55.3972 34.5084 56.5136 34.4968 57.6069 34.4738C58.5507 34.4623 59.5059 34.4508 60.4497 34.4278C60.3806 37.1901 60.3116 40.0674 60.2655 43.0599C60.208 46.4091 60.1735 49.7123 60.1504 52.9234C59.2067 52.9465 58.263 52.958 57.3307 52.9695C56.433 52.981 55.5238 53.004 54.6146 53.0155C54.557 49.954 54.511 46.8004 54.4649 43.5433C54.4189 40.4127 54.3613 37.3972 54.2808 34.5314Z" fill="#1E1105"/>
</svg>
