<svg width="128" height="132" viewBox="0 0 128 132" fill="none" xmlns="http://www.w3.org/2000/svg">
<path d="M22.3165 6.99892C23.2258 6.99892 24.2041 7.04496 25.2514 7.13703C28.8422 7.40175 31.5699 8.1959 33.4459 9.49647C35.3219 10.797 36.1735 12.8802 36.0009 15.7346C35.8398 17.7602 35.529 20.8793 35.0917 25.0917C34.6428 29.3042 34.194 34.0231 33.7106 39.2599L57.4424 38.788L59.9629 18.9227C60.2621 16.5518 61.4361 14.7908 63.4847 13.6629C64.9003 12.8802 66.7763 12.4774 69.1126 12.4774C70.1369 12.4774 71.2533 12.558 72.4503 12.7076C76.3749 13.2025 79.045 14.1233 80.4491 15.4584C81.8532 16.7934 82.4517 18.658 82.2445 21.0519C81.9223 24.3551 81.4735 28.4525 80.898 33.344C80.3225 38.2355 79.632 43.5068 78.8263 49.158C81.2202 49.2731 83.7522 49.4572 86.4108 49.6989C89.0695 49.9406 91.4519 50.1938 93.558 50.4701C94.2141 46.0044 94.8585 41.4927 95.48 36.935C96.1015 32.3772 96.8151 27.6814 97.6092 22.8704C98.1617 19.2335 99.888 16.9891 102.777 16.1489C104.261 15.677 105.861 15.4468 107.565 15.4468C108.508 15.4468 109.487 15.5159 110.499 15.6655C113.319 16.0684 115.725 16.9085 117.693 18.1746C119.062 19.0953 119.925 20.1082 120.305 21.2246C120.674 22.341 120.743 23.8142 120.512 25.6327C118.763 40.9057 116.576 56.2938 113.964 71.7855C111.351 87.2772 108.301 102.55 104.814 117.616C104.377 119.596 103.467 121.138 102.075 122.208C100.682 123.29 99.1745 124.004 97.5632 124.349C97.1143 124.453 96.6079 124.499 96.021 124.499C95.2268 124.499 94.3061 124.407 93.2703 124.223C91.4519 123.9 89.9326 123.428 88.7127 122.807C87.5848 122.197 86.6525 121.311 85.916 120.16C85.1794 118.997 84.9262 117.501 85.1564 115.683C86.0771 107.729 87.0093 99.9951 87.9531 92.514C88.9083 85.0214 89.8636 77.4942 90.8189 69.9095C88.425 69.7944 85.893 69.6102 83.2344 69.3685C80.5757 69.1268 78.1933 68.8736 76.0872 68.5974C75.1434 74.6053 74.2112 80.268 73.302 85.5738C72.3927 90.8912 71.5411 95.2533 70.7354 98.6831C70.3096 100.582 69.5155 101.848 68.3761 102.493C67.4553 103.011 66.2699 103.264 64.7967 103.264C64.4169 103.264 64.0256 103.252 63.6228 103.218C59.5831 102.896 55.3592 102.539 50.9512 102.17C46.5432 101.802 42.2273 101.411 38.015 101.019C33.7911 100.628 29.786 100.179 25.9995 99.7074C22.213 99.224 18.9444 98.7636 16.2167 98.3263C13.5811 97.9004 11.3484 96.6229 9.52992 94.4821C7.71148 92.3529 6.84829 89.8093 6.95187 86.8399C7.10149 82.685 7.41223 77.5748 7.84958 71.4978C8.29844 65.4323 8.80484 59.0216 9.3803 52.2655C9.95575 45.521 10.5427 38.8455 11.1527 32.2391C11.7627 25.6327 12.3036 19.7168 12.7755 14.4916C13.0287 11.7408 14.053 9.73817 15.8369 8.47213C17.195 7.48232 19.3587 6.99892 22.3165 6.99892ZM49.409 83.5597C50.1456 83.5597 50.7786 83.4331 51.308 83.1799C51.8489 82.9267 52.1827 82.2936 52.3093 81.2923L54.8298 60.3106L31.6389 59.8733C31.2016 64.7418 30.7642 69.1384 30.3154 73.0746C29.8665 77.0108 29.5673 79.8997 29.4292 81.7297C31.3627 81.8793 33.1236 82.0404 34.7349 82.1901C36.3347 82.3512 37.8999 82.5008 39.4076 82.6389C40.9153 82.7885 42.4575 82.9382 44.0112 83.0878C45.565 83.2374 47.3604 83.3985 49.386 83.5597C49.3975 83.5597 49.409 83.5597 49.409 83.5597ZM22.3165 0.0932617C17.851 0.0932617 14.4328 0.979486 11.8433 2.79798C9.43786 4.50137 6.44547 7.79307 5.89303 13.8125L5.31758 20.0621L4.25874 31.5716C3.67178 37.9363 3.0733 44.6923 2.47482 51.644C1.88786 58.4921 1.36995 64.995 0.932606 70.9568C0.48375 77.0799 0.172994 82.3282 0.0233754 86.5406C-0.126243 91.225 1.33543 95.495 4.24724 98.9133C7.1015 102.274 10.8535 104.403 15.0773 105.094C17.851 105.543 21.2117 106.015 25.0902 106.509C28.9343 106.993 33.043 107.442 37.3244 107.845C41.7094 108.259 46.0829 108.65 50.3297 109.007C54.7492 109.387 58.9731 109.732 63.0358 110.054C63.6228 110.1 64.2098 110.123 64.7737 110.123C67.4323 110.123 69.7687 109.571 71.7252 108.478C73.7278 107.35 76.3519 105.002 77.4453 100.191C78.2739 96.6344 79.1716 92.0997 80.0923 86.6902C80.6678 83.3295 81.2548 79.7961 81.8417 76.1246C82.0834 76.1476 82.3251 76.1706 82.5668 76.1936C82.7164 76.2052 82.8661 76.2167 83.0157 76.2397L81.0706 91.6048C80.1154 99.1435 79.1716 106.958 78.2624 114.819C77.8366 118.261 78.4351 121.288 80.0348 123.82C81.4044 125.983 83.2113 127.675 85.3866 128.849L85.4671 128.895L85.5477 128.93C87.3891 129.862 89.5068 130.53 92.0043 130.979C93.466 131.243 94.7665 131.358 95.9749 131.358C97.0683 131.358 98.0926 131.255 99.0364 131.036C101.614 130.472 104.066 129.321 106.276 127.618C108.923 125.569 110.73 122.623 111.524 119.089C115.023 103.966 118.13 88.4282 120.754 72.8789C123.378 57.3297 125.599 41.6999 127.349 26.4038C127.706 23.538 127.544 21.121 126.842 19.0033C125.968 16.3906 124.184 14.1693 121.525 12.3853L121.468 12.3508L121.41 12.3163C118.602 10.5093 115.253 9.32383 111.455 8.77137C110.12 8.57571 108.808 8.48364 107.542 8.48364C105.171 8.48364 102.892 8.81741 100.763 9.47345C97.5517 10.4287 92.0733 13.2716 90.7728 21.7195C89.9787 26.5304 89.2536 31.3068 88.6206 35.9336C88.3099 38.224 87.9876 40.5259 87.6538 42.8278C87.4467 42.8048 87.2395 42.7933 87.0208 42.7702C86.8942 42.7587 86.7677 42.7472 86.6526 42.7357C87.0554 39.7202 87.4121 36.8314 87.7344 34.0921C88.3098 29.1776 88.7702 24.9997 89.0925 21.6735V21.6389V21.6044C89.5874 15.9072 87.2395 12.3738 85.1794 10.4172C82.6013 7.97722 78.8263 6.51553 73.2789 5.81345C71.7943 5.6293 70.3786 5.52571 69.0781 5.52571C65.5793 5.52571 62.5524 6.21628 60.1125 7.57439C56.1534 9.76119 53.6674 13.4672 53.092 18.0019L51.3195 31.9514L41.2951 32.147C41.5138 29.8912 41.7324 27.7619 41.9396 25.7593C42.377 21.5353 42.6877 18.3357 42.8603 16.241V16.1719V16.1029C43.2977 9.01307 39.6033 5.33005 37.3705 3.77628C34.4357 1.73911 30.6492 0.565146 25.7808 0.196845C24.5723 0.139297 23.3984 0.0932617 22.3165 0.0932617ZM37.0022 75.4685C37.0597 74.9506 37.1173 74.4097 37.1863 73.8572C37.4395 71.6704 37.6812 69.3455 37.9229 66.894L47.0727 67.0667L45.9563 76.3317C45.5189 76.2857 45.0931 76.2512 44.6788 76.2167L42.0547 75.9634L40.0636 75.7678C39.0623 75.6757 38.038 75.5721 37.0022 75.4685Z" fill="#1E1105"/>
</svg>
