<svg width="113" height="118" viewBox="0 0 113 118" fill="none" xmlns="http://www.w3.org/2000/svg">
<path d="M95.364 117.567C94.9727 117.567 94.5698 117.556 94.144 117.533C91.9688 117.429 90.0583 117.084 88.4585 116.508C86.6286 115.806 85.0978 114.69 83.8549 113.182C82.4622 111.49 81.7487 109.292 81.7487 106.633C81.6796 100.591 81.6336 94.5598 81.6221 88.667C81.2768 90.3704 80.6323 91.8321 79.7116 93.0176C78.0312 95.1583 75.7754 96.5164 73.1744 96.9308C69.6181 97.4947 65.5208 98.0357 61.0092 98.5421C56.4977 99.0485 51.6408 99.5434 46.5768 100.004C41.5358 100.464 36.2416 100.89 30.8208 101.258C25.4 101.627 20.0713 101.868 14.9727 101.96C14.8346 101.96 14.6505 101.972 14.4663 101.972C11.1057 101.972 8.27444 100.913 6.05318 98.8068C3.75136 96.6315 2.46231 93.6851 2.22062 90.0366C1.9329 85.1106 1.67973 79.5055 1.46105 73.3595C1.23087 67.1098 1.04671 60.561 0.908602 53.897C0.770492 47.1525 0.67843 40.4655 0.632394 34.0317C0.586357 27.5174 0.609373 21.4404 0.701446 15.9964C0.828046 13.0615 1.53009 10.9323 2.84213 9.40154C4.24624 7.74418 6.43299 6.81191 9.51744 6.5472C19.2657 5.89116 28.9908 5.43078 38.5089 5.15456C47.7967 4.88984 57.2573 4.64814 66.6487 4.46399C69.4109 4.46399 71.7357 5.56889 73.4621 7.6521C75.0158 9.53965 75.879 12.4055 76.1092 16.4108C76.3279 20.301 75.7984 23.42 74.4749 25.9406C72.9097 28.933 70.3777 30.671 67.1666 30.9587C60.687 31.6953 54.2994 32.2132 48.2341 32.4895C43.101 32.6506 37.8183 32.8347 32.4666 33.0419C32.4551 39.4757 32.4091 46.1857 32.3285 53.0338C32.2364 60.6415 32.1904 68.0191 32.1904 74.9823C38.7736 74.6255 45.4144 74.3148 51.94 74.0615C58.834 73.7853 65.5553 73.463 71.9084 73.0947C72.1155 73.0832 72.2882 73.0832 72.4723 73.0832C74.9928 73.0832 77.2256 74.027 78.9404 75.811C80.2985 77.2266 81.1962 79.1717 81.6336 81.7268C81.6336 74.568 81.6566 67.4206 81.7026 60.2962C81.7487 52.8266 81.8408 45.0462 81.9789 37.1968C82.117 29.4164 82.2781 21.3253 82.4622 12.9464C82.6234 6.5472 86.007 3.7504 88.8268 2.5304C91.3242 1.39097 94.2361 0.79248 97.4241 0.79248H97.85C101.188 0.850028 104.18 1.49455 106.735 2.71455C108.956 3.83097 110.487 5.26965 111.327 7.03059C112.064 8.59587 112.432 10.4949 112.432 12.8774C112.616 28.1964 112.386 43.9414 111.741 59.6287C111.097 75.3276 109.981 91.0725 108.415 106.449C108.162 109.257 107.103 111.617 105.285 113.447C103.685 115.047 101.832 116.232 99.7835 116.957C98.5635 117.36 97.1249 117.567 95.364 117.567Z" fill="url(#paint0_linear_122_1454)"/>
<defs>
<linearGradient id="paint0_linear_122_1454" x1="56.5236" y1="117.571" x2="56.5236" y2="0.766582" gradientUnits="userSpaceOnUse">
<stop offset="0.0549" stop-color="white"/>
<stop offset="0.1014" stop-color="#FFF4E2"/>
<stop offset="0.171" stop-color="#FFE6BC"/>
<stop offset="0.2076" stop-color="#FFE0AE"/>
<stop offset="0.2725" stop-color="#FFD99B"/>
<stop offset="0.4048" stop-color="#FFCD7A"/>
<stop offset="0.5413" stop-color="#FFC361"/>
<stop offset="0.6819" stop-color="#FFBC4E"/>
<stop offset="0.8293" stop-color="#FFB844"/>
<stop offset="0.9944" stop-color="#FFB740"/>
</linearGradient>
</defs>
</svg>
