<?xml version="1.0" encoding="UTF-8"?>
<svg xmlns="http://www.w3.org/2000/svg" xmlns:xlink="http://www.w3.org/1999/xlink" viewBox="0 0 150 150" width="150px" height="150px">
<g id="surface77002971">
<path style=" stroke:none;fill-rule:nonzero;fill:rgb(255,255,255);fill-opacity:1;" d="M 75 9 C 38.550781 9 9 38.550781 9 75 C 9 108.089844 33.375 135.410156 65.136719 140.183594 L 65.136719 92.492188 L 48.808594 92.492188 L 48.808594 75.144531 L 65.136719 75.144531 L 65.136719 63.601562 C 65.136719 44.488281 74.449219 36.097656 90.332031 36.097656 C 97.941406 36.097656 101.964844 36.660156 103.867188 36.917969 L 103.867188 52.0625 L 93.03125 52.0625 C 86.289062 52.0625 83.933594 58.453125 83.933594 65.660156 L 83.933594 75.144531 L 103.699219 75.144531 L 101.015625 92.492188 L 83.933594 92.492188 L 83.933594 140.324219 C 116.148438 135.953125 141 108.410156 141 75 C 141 38.550781 111.449219 9 75 9 Z M 75 9 "/>
</g>
</svg>
