<svg width="29" height="29" viewBox="0 0 29 29" fill="none" xmlns="http://www.w3.org/2000/svg">
<path d="M7.06477 14.4968C7.06477 18.6114 10.3844 21.9303 14.5 21.9303C18.6156 21.9303 21.9352 18.6114 21.9352 14.4968C21.9352 10.3821 18.6156 7.06319 14.5 7.06319C10.3844 7.06319 7.06477 10.3821 7.06477 14.4968ZM19.3339 14.4968C19.3339 17.1558 17.1661 19.3296 14.5 19.3296C11.8339 19.3296 9.66613 17.1622 9.66613 14.4968C9.66613 11.8313 11.8339 9.66397 14.5 9.66397C17.1661 9.66397 19.3339 11.8378 19.3339 14.4968ZM6.76063 5.02526C7.72481 5.02526 8.49487 5.80161 8.49487 6.75912C8.49487 7.72309 7.71834 8.49297 6.76063 8.49297C5.80291 8.49297 5.02639 7.71662 5.02639 6.75912C5.02639 5.80161 5.80291 5.02526 6.76063 5.02526ZM8.52075 0.101894C6.19765 0.211876 4.13985 0.742386 2.44444 2.44389C0.749024 4.13893 0.218398 6.19626 0.101919 8.51885C-0.0339728 10.9126 -0.0339729 18.0874 0.101919 20.4811C0.211927 22.7973 0.742553 24.8546 2.43797 26.5561C4.13338 28.2576 6.19117 28.7817 8.51428 28.8981C10.9086 29.034 18.085 29.034 20.4792 28.8981C22.8024 28.7881 24.8601 28.2576 26.5556 26.5561C28.251 24.8546 28.7816 22.8037 28.8981 20.4811C29.034 18.0874 29.034 10.9126 28.8981 8.51885C28.7881 6.19626 28.2574 4.13893 26.5556 2.44389C24.8601 0.748856 22.8024 0.218346 20.4792 0.101895C18.085 -0.0339678 10.915 -0.0339678 8.52075 0.101894ZM23.0483 3.19437C24.3166 3.699 25.2937 4.6759 25.8049 5.95041C26.562 7.85895 26.3873 12.3877 26.3873 14.4968C26.3873 16.6059 26.5556 21.141 25.8049 23.0431C25.3002 24.3112 24.323 25.2881 23.0483 25.7992C21.1393 26.5561 16.6096 26.3814 14.5 26.3814C12.3904 26.3814 7.85423 26.5496 5.95175 25.7992C4.68342 25.2945 3.70629 24.3176 3.19508 23.0431C2.43797 21.1346 2.61269 16.6059 2.61269 14.4968C2.61269 12.3877 2.44444 7.85248 3.19508 5.95041C3.69982 4.68237 4.67695 3.70546 5.95175 3.19437C7.86071 2.43742 12.3904 2.6121 14.5 2.6121C16.6096 2.6121 21.1458 2.43742 23.0483 3.19437Z" fill="white"/>
</svg>
