<svg width="29" height="29" viewBox="0 0 29 29" fill="none" xmlns="http://www.w3.org/2000/svg">
<path d="M17.6136 11.1469V15.7493C17.6136 15.8658 17.523 15.9565 17.4065 15.9565H16.6685C16.5973 15.9565 16.5326 15.9176 16.5002 15.8723L14.39 13.0241V15.7558C14.39 15.8723 14.2993 15.9629 14.1828 15.9629H13.4449C13.3283 15.9629 13.2377 15.8723 13.2377 15.7558V11.1534C13.2377 11.0368 13.3283 10.9462 13.4449 10.9462H14.1763C14.2411 10.9462 14.3123 10.9786 14.3446 11.0368L16.4549 13.885V11.1534C16.4549 11.0368 16.5455 10.9462 16.6621 10.9462H17.4C17.5165 10.9397 17.6136 11.0368 17.6136 11.1469ZM12.3056 10.9397H11.5676C11.4511 10.9397 11.3605 11.0304 11.3605 11.1469V15.7493C11.3605 15.8658 11.4511 15.9565 11.5676 15.9565H12.3056C12.4221 15.9565 12.5127 15.8658 12.5127 15.7493V11.1469C12.5127 11.0368 12.4221 10.9397 12.3056 10.9397ZM10.5255 14.7978H8.51228V11.1469C8.51228 11.0304 8.42166 10.9397 8.30514 10.9397H7.56719C7.45068 10.9397 7.36005 11.0304 7.36005 11.1469L7.36005 15.7493C7.36005 15.8076 7.37947 15.8529 7.41831 15.8917C7.45715 15.9241 7.50246 15.95 7.56072 15.95H10.519C10.6355 15.95 10.7261 15.8594 10.7261 15.7429V15.0049C10.7261 14.8949 10.6355 14.7978 10.5255 14.7978ZM21.4975 10.9397H18.5393C18.4292 10.9397 18.3321 11.0304 18.3321 11.1469V15.7493C18.3321 15.8594 18.4228 15.9565 18.5393 15.9565H21.4975C21.6141 15.9565 21.7047 15.8658 21.7047 15.7493V15.0114C21.7047 14.8949 21.6141 14.8042 21.4975 14.8042H19.4844V14.0275H21.4975C21.6141 14.0275 21.7047 13.9368 21.7047 13.8203V13.0759C21.7047 12.9594 21.6141 12.8688 21.4975 12.8688H19.4844V12.092H21.4975C21.6141 12.092 21.7047 12.0013 21.7047 11.8848V11.1469C21.6982 11.0368 21.6076 10.9397 21.4975 10.9397ZM29 5.28862L29 23.7567C28.9935 26.6567 26.6178 29.0065 23.7114 29L5.24331 29C2.34331 28.9935 -0.00645987 26.6114 1.33423e-05 23.7114L1.33423e-05 5.24331C0.00648655 2.34331 2.38863 -0.00645987 5.28862 1.33423e-05L23.7567 1.33423e-05C26.6567 0.00648655 29.0065 2.38215 29 5.28862ZM25.0125 13.2248C25.0125 8.49934 20.2741 4.65425 14.4547 4.65425C8.63527 4.65425 3.89688 8.49934 3.89688 13.2248C3.89688 17.4583 7.65135 21.0056 12.7263 21.6788C13.9627 21.9442 13.8203 22.3973 13.542 24.0609C13.4967 24.3263 13.3284 25.1031 14.4547 24.6306C15.581 24.158 20.533 21.0509 22.7533 18.5004C24.281 16.8174 25.0125 15.115 25.0125 13.2248Z" fill="white"/>
</svg>
