<svg width="1920" height="87" viewBox="0 0 1920 87" fill="none" xmlns="http://www.w3.org/2000/svg">
<path d="M97.0774 63.4421C59.7676 69.5706 28.2574 67.8903 6.94033 64.347C-7.09108 62.0147 -16 49.2627 -16 35.0388C-16 16.2397 -0.760319 1 18.0388 1H1957.71C1982.17 1 2002 20.83 2002 45.2916C2002 58.2394 1996.57 71.1644 1984.77 76.4906C1938.37 97.4321 1864.98 79.1869 1830.39 65.6941C1779.11 47.3061 1713.91 58.0324 1687.72 65.6941C1606.67 96.0742 1502.32 78.3525 1460.28 65.6941C1377.58 31.3165 1275.58 51.3701 1234.91 65.6941C1189.62 86.0193 1127.23 85.3661 1076.49 78.8493C1031.47 73.0672 989.38 52.3228 944.34 46.6812C926.555 44.4534 908.399 43.9056 891.247 44.3948C843.089 45.7684 797.864 66.9295 750.125 73.4141C689.246 81.6835 635.141 65.347 610.49 52.7025C544.326 27.1192 467.135 46.0402 436.809 58.6986C384.574 86.1409 328.052 83.7544 287.043 74.1722C256.395 67.0111 227.451 52.5505 196.15 49.2646C174.23 46.9634 156.283 48.3573 142.956 51.0659C127.449 54.2175 112.692 60.8772 97.0774 63.4421Z" fill="#342E37" stroke="black"/>
</svg>
